<?xml version="1.0" standalone="no"?>
<!DOCTYPE svg PUBLIC "-//W3C//DTD SVG 20010904//EN"
 "http://www.w3.org/TR/2001/REC-SVG-20010904/DTD/svg10.dtd">
<svg version="1.0" xmlns="http://www.w3.org/2000/svg"
 width="240.000000pt" height="240.000000pt" viewBox="0 0 240.000000 240.000000"
 preserveAspectRatio="xMidYMid meet">
<metadata>
Created by potrace 1.11, written by Peter Selinger 2001-2013
</metadata>
<g transform="translate(0.000000,240.000000) scale(0.100000,-0.100000)"
fill="#000000" stroke="none">
<path d="M1109 2230 c-29 -15 -109 -114 -109 -135 0 -4 -87 -156 -130 -225 -5
-8 -46 -80 -92 -160 -46 -79 -95 -165 -110 -190 -15 -25 -31 -52 -35 -60 -3
-8 -17 -33 -31 -54 -13 -22 -34 -58 -46 -80 -12 -23 -108 -189 -213 -371 -105
-181 -200 -346 -211 -365 -11 -19 -40 -71 -66 -115 -25 -44 -49 -94 -52 -112
-8 -43 3 -75 24 -69 9 3 37 8 62 11 25 3 85 12 135 20 50 8 108 16 130 20 23
3 50 7 60 9 11 2 43 7 70 10 54 7 96 14 135 21 14 2 45 7 70 10 25 3 56 8 70
10 31 6 62 10 165 25 110 15 112 16 119 54 18 96 126 146 219 102 133 -64 100
-269 -47 -291 -57 -9 -121 20 -153 68 l-21 34 -111 -18 c-61 -9 -133 -20 -159
-24 -26 -3 -72 -10 -102 -15 -30 -5 -72 -11 -93 -15 -127 -18 -385 -57 -403
-60 -12 -2 -47 -6 -78 -10 -31 -4 -59 -12 -62 -17 -8 -12 21 -43 65 -71 l36
-22 1045 0 c709 -1 1055 2 1075 9 17 6 42 19 55 29 l24 17 -66 68 c-36 37 -95
97 -129 133 -35 36 -156 161 -268 277 l-204 211 -24 -17 c-15 -9 -45 -15 -74
-15 -89 1 -152 64 -152 153 -1 164 214 213 290 66 17 -33 19 -95 4 -124 -5
-10 -6 -23 -3 -29 4 -6 111 -118 237 -248 127 -130 271 -280 322 -333 51 -53
96 -93 100 -89 4 4 9 36 11 70 l3 62 -112 195 c-61 107 -140 244 -175 303 -35
60 -64 111 -64 113 0 2 -11 21 -23 42 -13 20 -68 114 -122 207 -54 94 -154
267 -223 385 -68 118 -137 238 -152 265 -156 278 -203 341 -259 347 -24 3 -27
-5 -98 -237 -41 -132 -82 -269 -93 -305 -10 -36 -28 -96 -40 -135 -12 -38 -23
-77 -25 -85 -2 -8 -24 -80 -48 -160 -40 -130 -43 -146 -28 -154 50 -28 86
-102 76 -155 -16 -84 -72 -133 -155 -134 -41 0 -57 5 -88 30 -82 66 -89 167
-16 241 17 17 78 42 102 42 14 0 21 9 26 32 3 18 22 82 41 143 33 106 198 652
237 785 11 36 22 73 25 83 7 23 -21 22 -68 -3z m201 -974 c43 -10 84 -29 128
-58 39 -27 41 -30 26 -46 -15 -15 -19 -14 -56 7 -122 70 -251 76 -369 16 -45
-22 -48 -23 -63 -6 -19 20 -14 27 41 55 81 41 202 54 293 32z m-479 -418 c6
-45 33 -137 49 -169 22 -41 75 -101 122 -134 21 -15 26 -25 22 -42 -4 -13 -9
-23 -13 -23 -16 0 -109 81 -141 122 -43 58 -78 147 -84 214 -4 50 -3 52 20 45
13 -3 24 -9 25 -13z m794 -45 c-14 -93 -50 -168 -112 -234 -61 -65 -112 -97
-124 -78 -15 24 -10 36 30 62 21 14 54 45 73 69 48 60 69 107 82 188 2 8 14
18 27 21 13 4 25 7 27 8 2 1 1 -16 -3 -36z"/>
<path d="M828 1132 c-41 -5 -78 -55 -78 -104 0 -120 173 -135 199 -16 10 42
-12 88 -51 109 -27 15 -33 16 -70 11z"/>
<path d="M1559 1112 c-55 -7 -100 -88 -76 -137 23 -47 49 -65 95 -65 36 0 49
5 73 31 68 73 9 184 -92 171z"/>
<path d="M1135 517 c-32 -32 -35 -40 -31 -78 16 -133 189 -128 201 6 5 51 -35
94 -92 102 -39 5 -46 2 -78 -30z"/>
</g>
</svg>
