<?xml version="1.0" encoding="utf-8"?>
<!-- Generator: Adobe Illustrator 22.0.0, SVG Export Plug-In . SVG Version: 6.00 Build 0)  -->
<svg version="1.1" id="Layer_1" xmlns="http://www.w3.org/2000/svg" xmlns:xlink="http://www.w3.org/1999/xlink" x="0px" y="0px"
	 viewBox="0 0 546.3 215.8" style="enable-background:new 0 0 546.3 215.8;" xml:space="preserve">
<style type="text/css">
	.st0{clip-path:url(#SVGID_2_);fill:#006495;}
	.st1{fill:none;}
	.st2{fill:#4B93B8;}
	.st3{fill:#FFFFFF;}
	.st4{enable-background:new    ;}
	.st5{fill:#006495;}
</style>
<title>logo-sf_1</title>
<g id="Layer_2_1_">
	<g id="Layer_1-2">
		<g>
			<g>
				<g>
					<defs>
						<path id="SVGID_1_" d="M142.3,128.6H142c-7.8-0.1-14-6.5-14-14.3c0-7.9,6.4-14.2,14.3-14.2c7.9,0,14.2,6.4,14.2,14.3
							c0,2.6-0.7,5.2-2.1,7.4l59.7,61.6c1.1-2.3,1.8-4.9,1.8-7.6c0-3-0.8-6-2.3-8.6l-90.7-157c-2.6-4.5-6.8-7.3-11.5-8.2L82,99.3
							c0.5,0.2,0.9,0.4,1.3,0.7c4.5,2.5,7.3,7.4,7.3,12.6c-0.1,7.9-6.5,14.2-14.4,14.1c-0.4,0-0.8-0.1-1.1-0.1
							c-7.5-0.6-13.2-6.8-13.2-14.3c0-7.9,6.5-14.2,14.3-14.2c0.3,0,0.6,0,0.9,0l29.1-96.4c-2.2,0.3-4.5,1-6.5,2.1
							c-2.6,1.5-4.8,3.7-6.3,6.3L2.7,167.3c-2.2,3.7-2.7,7.9-1.9,11.9l93.2-14c0-0.1,0-0.2,0-0.4c0.2-5.7,3.7-10.7,9-12.8
							c7.3-2.9,15.6,0.6,18.5,7.9c0.6,1.6,1,3.3,1,5c0,0.1,0,0.3,0,0.4c0,6-3.8,11.4-9.5,13.5c-7.4,2.6-15.5-1.3-18.2-8.7L2.5,183.9
							c1.4,2.6,3.6,4.9,6.4,6.6c2.6,1.5,5.6,2.3,8.6,2.3h181.4c4.8,0,9.2-2,12.3-5.2l-60-62C148.6,127.5,145.5,128.6,142.3,128.6z
							 M91.6,163.7C78.4,157.2,70,143.8,70,129.1c0-0.4,0-0.8,0-1.2c1.6,0.6,3.3,1,5,1.2v0.1c0,12.4,6.9,23.8,17.9,29.6
							C92.2,160.3,91.8,162,91.6,163.7z M89.2,101.8c-1.1-1.3-2.4-2.5-3.8-3.4c14.5-10.9,34.6-10.2,48.3,1.7c-1.5,0.9-2.8,2-3.9,3.2
							C118.1,93.7,101.5,93.1,89.2,101.8z M124.9,164c-0.1-1.7-0.6-3.4-1.2-5c10.6-5.4,17.5-16,18.2-27.9l0.3,0.1
							c1.6,0,3.2-0.2,4.7-0.7C146.4,144.9,137.9,157.8,124.9,164z"/>
					</defs>
					<clipPath id="SVGID_2_">
						<use xlink:href="#SVGID_1_"  style="overflow:visible;"/>
					</clipPath>
					<polygon class="st0" points="0,1.8 0,6.6 0,10.9 0,15.1 0,19.3 0,23.6 0,27.8 0,32 0,36.3 0,40.5 0,44.7 0,48.9 0,53.2 0,57.4 
						0,61.6 0,65.9 0,70.1 0,74.3 0,78.6 0,82.8 0,87 0,91.3 0,95.5 0,99.7 0,103.9 0,108.2 0,112.4 0,116.6 0,120.9 0,125.1 
						0,129.3 0,133.6 0,137.8 0,142 0,146.3 0,150.5 0,154.7 0,158.9 0,163.2 0,167.4 0,171.6 0,175.9 0,180.1 0,184.3 0,188.6 
						0,192.8 0,192.8 215.9,192.8 215.9,192.8 215.9,188.6 215.9,184.3 215.9,180.1 215.9,175.9 215.9,171.6 215.9,167.4 
						215.9,163.2 215.9,158.9 215.9,154.7 215.9,150.5 215.9,146.3 215.9,142 215.9,137.8 215.9,133.6 215.9,129.3 215.9,125.1 
						215.9,120.9 215.9,116.6 215.9,112.4 215.9,108.2 215.9,103.9 215.9,99.7 215.9,95.5 215.9,91.3 215.9,87 215.9,82.8 
						215.9,78.6 215.9,74.3 215.9,70.1 215.9,65.9 215.9,61.6 215.9,57.4 215.9,53.2 215.9,48.9 215.9,44.7 215.9,40.5 215.9,36.3 
						215.9,32 215.9,27.8 215.9,23.6 215.9,19.3 215.9,15.1 215.9,10.9 215.9,6.6 215.9,1.8 					"/>
				</g>
			</g>
		</g>
		<g>
			<g>
				<path class="st1" d="M113.4,173c-1.5,1-3.2,1.5-5.1,1.6C110.2,174.6,111.9,174,113.4,173z"/>
			</g>
			<g>
				<path class="st1" d="M113.9,172.7C113.8,172.7,113.8,172.7,113.9,172.7C113.8,172.7,113.8,172.7,113.9,172.7z"/>
			</g>
			<g>
				<path class="st2" d="M117.4,166.6c0.1-0.4,0.1-0.8,0.1-1.2c0-3.6-2.1-6.8-5.3-8.3c-4.6-2.2-10.1-0.2-12.3,4.5
					c-0.5,1-0.8,2.2-0.8,3.3c0,0.2,0,0.4,0,0.6c0,0.4,0,0.7,0.1,1.1c0.1,1.1,0.5,2.3,1,3.3c1.4,2.6,4,4.4,7,4.8
					c0.4,0.1,0.9,0.1,1.3,0.1c1.9-0.1,3.6-0.6,5.1-1.6c0.1-0.1,0.3-0.2,0.4-0.3l0,0C115.7,171.3,117,169.1,117.4,166.6z"/>
			</g>
			<g>
				<path class="st3" d="M113.8,172.7c-0.1,0.1-0.3,0.2-0.4,0.3C113.5,172.9,113.7,172.8,113.8,172.7z"/>
			</g>
		</g>
		<g>
			<path class="st2" d="M80.6,104.3c4.5,2.4,6.2,8,3.7,12.5c-1.6,3-4.7,4.8-8.1,4.8l0,0h-0.4c-1.7-0.1-3.4-0.6-4.8-1.6
				c-4.2-2.8-5.4-8.6-2.5-12.8c1.6-2.4,4.3-3.9,7.2-4.1h0.5c1.1,0,2.3,0.2,3.3,0.6C79.9,103.9,80.3,104.1,80.6,104.3z"/>
		</g>
		<g>
			<g>
				<path class="st2" d="M142.2,105.1c-1.1,0-2.2,0.2-3.2,0.6c-1.6,0.6-3,1.6-4,2.9c-1.2,1.4-1.8,3.2-2,5c-0.4,5.1,3.4,9.5,8.5,9.9
					c0.2,0,0.5,0,0.7,0c1.5,0,2.9-0.3,4.2-1c0.3-0.2,0.6-0.4,0.9-0.6c1.4-0.9,2.5-2.3,3.3-3.8c0.6-1.2,0.9-2.5,0.9-3.9
					C151.5,109.3,147.3,105.1,142.2,105.1z"/>
			</g>
		</g>
		<g class="st4">
			<path class="st5" d="M239.8,103.1v-6.9c4.5,1.7,9,2.6,13.8,2.6c3.9,0,6.7-0.5,8.5-1.4s2.6-2.6,2.6-5.1c0-1.6-0.4-2.8-1.1-3.8
				c-0.7-0.9-2-1.7-3.6-2.4c-1.7-0.7-4.2-1.4-7.6-2.3c-5-1.3-8.5-2.9-10.5-4.9s-3-4.7-3-8.2c0-4.1,1.5-7.3,4.5-9.6s7.4-3.4,13.2-3.4
				c2.5,0,5,0.2,7.4,0.5c2.4,0.4,4.3,0.8,5.8,1.3v6.9c-3.6-1.4-7.7-2.1-12.1-2.1c-3.6,0-6.4,0.5-8.2,1.4c-1.8,1-2.7,2.6-2.7,4.9
				c0,1.4,0.3,2.5,1,3.3s1.8,1.6,3.3,2.2c1.6,0.6,3.9,1.4,7,2.1c5.4,1.4,9.2,3.2,11.3,5.4c2.1,2.2,3.2,5.1,3.2,8.6
				c0,4.1-1.5,7.3-4.6,9.6c-3.1,2.3-7.6,3.5-13.6,3.5C248.3,105.4,243.5,104.6,239.8,103.1z"/>
			<path class="st5" d="M280.2,58.3h32.3v6.1H288v14h21.8v6H288v14.1h24.5v6h-32.3V58.3z"/>
		</g>
		<g class="st4">
			<path class="st5" d="M319.7,58.3H341c5,0,8.8,1.3,11.2,3.9c2.4,2.6,3.7,6.2,3.7,10.9c0,3.3-0.8,6.1-2.5,8.4s-4,3.9-7,4.8
				c0.8,0.6,1.5,1.2,1.9,1.9c0.5,0.7,1,1.7,1.5,3l5.8,13.5h-8.1l-5.7-13c-0.6-1.3-1.2-2.2-2-2.7s-2-0.8-3.7-0.8h-8.7v16.4h-7.8V58.3
				H319.7z M338.9,81.9c6.1,0,9.1-2.9,9.1-8.8c0-5.8-2.8-8.7-8.4-8.7h-12.1v17.5H338.9z"/>
		</g>
		<g class="st4">
			<path class="st5" d="M359.4,58.3h8.1l13.9,37.9l13.9-37.9h8.1l-17.6,46.4H377L359.4,58.3z"/>
			<path class="st5" d="M411.1,58.3h7.8v46.4h-7.8V58.3z"/>
			<path class="st5" d="M432.6,99.2c-4-4.1-6-9.8-6-17c0-7.8,1.9-13.9,5.8-18.2c3.8-4.3,9.6-6.4,17.4-6.4c4.8,0,9.4,0.7,13.6,2.2
				v6.8c-4.1-1.6-8.4-2.4-13-2.4c-5.6,0-9.6,1.5-12.1,4.5c-2.4,3-3.7,7.5-3.7,13.5c0,5.5,1.3,9.6,3.9,12.4s6.6,4.2,12,4.2
				c4.8,0,9.1-0.7,13-2.2v6.9c-4.1,1.3-8.7,1.9-13.6,1.9C442.3,105.4,436.6,103.3,432.6,99.2z"/>
			<path class="st5" d="M471,58.3h32.3v6.1h-24.5v14h21.8v6h-21.8v14.1h24.5v6H471V58.3z"/>
		</g>
		<g class="st4">
			<path class="st5" d="M240.3,142.3h31.5v6.1h-23.7v14h21v6h-21v20.2h-7.8L240.3,142.3L240.3,142.3z"/>
		</g>
		<g class="st4">
			<path class="st5" d="M295.1,142.3h8.8l17.6,46.4h-8.1l-4.6-12h-18.6l-4.6,12h-8.1L295.1,142.3z M307.4,170.7l-8.1-21.2l-8.1,21.2
				H307.4z"/>
		</g>
		<g class="st4">
			<path class="st5" d="M332.8,183.2c-4-4.1-6-9.8-6-17c0-7.8,1.9-13.9,5.8-18.2c3.8-4.3,9.6-6.4,17.4-6.4c4.8,0,9.4,0.7,13.6,2.2
				v6.8c-4.1-1.6-8.4-2.4-13-2.4c-5.6,0-9.6,1.5-12.1,4.5c-2.4,3-3.7,7.5-3.7,13.5c0,5.5,1.3,9.6,3.9,12.4c2.6,2.8,6.6,4.2,12,4.2
				c4.8,0,9.1-0.7,13-2.2v6.9c-4.1,1.3-8.7,1.9-13.6,1.9C342.5,189.4,336.8,187.3,332.8,183.2z"/>
		</g>
		<g class="st4">
			<path class="st5" d="M384,148.4h-14.8v-6.1h37.4v6.1h-14.8v40.2H384V148.4z"/>
		</g>
		<g class="st4">
			<path class="st5" d="M412.3,183.6c-3.6-3.9-5.4-9.9-5.4-18c0-8.4,1.8-14.4,5.4-18.3c3.6-3.8,9.1-5.8,16.6-5.8
				c7.4,0,13,1.9,16.6,5.8c3.6,3.8,5.4,9.9,5.4,18.3c0,8.1-1.8,14.1-5.4,18s-9.1,5.8-16.5,5.8C421.4,189.4,415.9,187.5,412.3,183.6z
				 M439.6,178.7c2.3-2.7,3.4-7.1,3.4-13.1c0-6.3-1.1-10.8-3.3-13.4c-2.2-2.6-5.8-4-10.8-4c-4.9,0-8.5,1.3-10.7,4
				c-2.2,2.6-3.3,7.1-3.3,13.4c0,6,1.1,10.4,3.4,13.1c2.3,2.7,5.8,4.1,10.7,4.1C433.7,182.8,437.3,181.4,439.6,178.7z"/>
		</g>
		<g class="st4">
			<path class="st5" d="M459.3,142.3h21.3c5,0,8.8,1.3,11.2,3.9c2.4,2.6,3.7,6.2,3.7,10.9c0,3.3-0.8,6.1-2.5,8.4
				c-1.7,2.3-4,3.9-7,4.8c0.8,0.6,1.5,1.2,1.9,1.9c0.5,0.7,1,1.7,1.5,3l5.8,13.5h-8.1l-5.7-13c-0.6-1.3-1.2-2.2-2-2.7
				s-2-0.8-3.7-0.8H467v16.4h-7.8v-46.3H459.3z M478.5,165.9c6.1,0,9.1-2.9,9.1-8.8c0-5.8-2.8-8.7-8.4-8.7h-12.1v17.5H478.5z"/>
		</g>
		<g class="st4">
			<path class="st5" d="M515.5,171.5l-16.6-29.2h8.1l12.4,22.5l12.4-22.5h8.1l-16.6,29.2v17.2h-7.8L515.5,171.5L515.5,171.5z"/>
		</g>
	</g>
</g>
</svg>
